<svg id="Camada_1" data-name="Camada 1" xmlns="http://www.w3.org/2000/svg" xmlns:xlink="http://www.w3.org/1999/xlink" viewBox="0 0 3341.18 911.66"><defs><style>.cls-1{fill:none;}.cls-2{clip-path:url(#clip-path);}.cls-3{opacity:0.5;}.cls-4{fill:#eb641c;}.cls-5{fill:#16a338;}.cls-6{fill:#faba38;}.cls-7{fill:#e51f40;}.cls-8{fill:#12b0e5;}.cls-9{fill:#283c8e;}.cls-10{fill:#e55196;}.cls-11{fill:#4eb277;}.cls-12{fill:#bb4d96;}.cls-13{fill:#6557a1;}.cls-14{fill:#ec6d26;}.cls-15{fill:#89367a;}.cls-16{fill:#00b1e1;}.cls-17{fill:#ec6c21;}.cls-18{fill:#faba44;}</style><clipPath id="clip-path" transform="translate(187.99 -84.17)"><rect class="cls-1" width="1921.01" height="1080"/></clipPath></defs><g class="cls-2"><g class="cls-3"><path class="cls-1" d="M2022.15,422.16h44.24a44.24,44.24,0,1,0,0-88.47h-44.24Z" transform="translate(187.99 -84.17)"/><circle class="cls-1" cx="619.39" cy="278.14" r="59.85"/><circle class="cls-1" cx="1110.64" cy="362.31" r="59.85" transform="translate(143.22 450.77) rotate(-26.57)"/><path class="cls-1" d="M2066.39,263.27a44.24,44.24,0,1,0,0-88.47h-44.24v88.47Z" transform="translate(187.99 -84.17)"/><circle class="cls-1" cx="2326.57" cy="362.31" r="59.85" transform="translate(613.24 1667.08) rotate(-45)"/><circle class="cls-1" cx="3120.59" cy="278.14" r="59.85"/><path class="cls-1" d="M1599.72,320a59.68,59.68,0,0,0-16.42,30.87l32.25-15L1671,309.94A59.88,59.88,0,0,0,1599.72,320Z" transform="translate(187.99 -84.17)"/><path class="cls-1" d="M1514.3,387.78c.24,1.2.5,2.4.77,3.58-.27-1.19-.53-2.38-.77-3.58Z" transform="translate(187.99 -84.17)"/><polygon class="cls-4" points="489.12 278.14 489.12 278.14 489.12 278.13 489.12 278.14"/><path class="cls-4" d="M431.4,232a129.73,129.73,0,0,0-59.86,14.54V362.31a59.86,59.86,0,1,1,59.86,59.85,59.85,59.85,0,0,1-59.86-59.85V476.44c0,.52,0,1-.07,1.55A130.27,130.27,0,1,0,431.4,232Z" transform="translate(187.99 -84.17)"/><path class="cls-5" d="M301.13,362.31V476.44a16.14,16.14,0,0,0,16.14,16.14h38.14A16.15,16.15,0,0,0,371.47,478,130.23,130.23,0,0,1,301.13,362.31Z" transform="translate(187.99 -84.17)"/><path class="cls-5" d="M371.54,246.58V100.31a16.13,16.13,0,0,0-16.13-16.14H317.27a16.13,16.13,0,0,0-16.14,16.14v262A130.26,130.26,0,0,1,371.54,246.58Z" transform="translate(187.99 -84.17)"/><path class="cls-5" d="M371.54,362.31V246.58A130.26,130.26,0,0,0,301.13,362.3h0A130.23,130.23,0,0,0,371.47,478c0-.51.07-1,.07-1.55Z" transform="translate(187.99 -84.17)"/><path class="cls-6" d="M216.91,483.1a16.12,16.12,0,0,0,14.68,9.48h38.15a16.14,16.14,0,0,0,16.13-16.14V377.92A114.67,114.67,0,0,1,216.91,483.1Z" transform="translate(187.99 -84.17)"/><path class="cls-6" d="M285.87,248.18h0a16,16,0,0,0-1.27-6.28A16,16,0,0,1,285.87,248.18Z" transform="translate(187.99 -84.17)"/><path class="cls-7" d="M215.46,248.18A16.14,16.14,0,0,1,231.59,232h38.15a16.1,16.1,0,0,1,11.41,4.73A16.1,16.1,0,0,0,269.74,232H231.59a16.14,16.14,0,0,0-16.13,16.14V377.92a44.24,44.24,0,0,1-88.48,0V248.18A16.14,16.14,0,0,0,110.85,232H72.7a16.14,16.14,0,0,0-16.13,16.14V377.92A114.68,114.68,0,0,0,216.91,483.1a16.09,16.09,0,0,1-1.45-6.66Z" transform="translate(187.99 -84.17)"/><path class="cls-7" d="M282.19,237.91a16.2,16.2,0,0,1,1.74,2.58A16.2,16.2,0,0,0,282.19,237.91Z" transform="translate(187.99 -84.17)"/><path class="cls-7" d="M283.93,240.49a16.2,16.2,0,0,0-1.74-2.58c-.33-.4-.68-.78-1-1.14A16.1,16.1,0,0,0,269.74,232H231.59a16.14,16.14,0,0,0-16.13,16.14V476.44a16.09,16.09,0,0,0,1.45,6.66,114.67,114.67,0,0,0,69-105.18V248.18a16,16,0,0,0-1.27-6.28A15.25,15.25,0,0,0,283.93,240.49Z" transform="translate(187.99 -84.17)"/><polygon class="cls-7" points="764.91 262.52 764.91 262.52 764.91 262.52 764.91 262.52"/><path class="cls-7" d="M645.88,241.52A16.11,16.11,0,0,0,631.2,232H593.06a16.14,16.14,0,0,0-16.14,16.14v98.51A114.66,114.66,0,0,1,645.88,241.52Z" transform="translate(187.99 -84.17)"/><path class="cls-5" d="M771,429.33a114.55,114.55,0,0,1-35.21,23.16v23.95A16.14,16.14,0,0,0,752,492.58h38.14a16.14,16.14,0,0,0,16.14-16.14V346.69h0v105.8A114.55,114.55,0,0,1,771,429.33Z" transform="translate(187.99 -84.17)"/><path class="cls-5" d="M894.7,452.49v23.95a16.14,16.14,0,0,0,16.14,16.14H949a16.14,16.14,0,0,0,16.14-16.14V346.69h0A114.68,114.68,0,0,1,894.7,452.49Z" transform="translate(187.99 -84.17)"/><path class="cls-5" d="M771,264a114.72,114.72,0,0,0-125.14-22.51,15.94,15.94,0,0,1,1.46,6.66v98.51a44.24,44.24,0,0,1,88.47,0A114.33,114.33,0,0,1,771,264Z" transform="translate(187.99 -84.17)"/><polygon class="cls-5" points="923.8 262.52 923.8 262.52 923.8 262.52 923.8 262.52"/><path class="cls-5" d="M645.88,241.52a114.66,114.66,0,0,0-69,105.17h70.42V248.18A15.94,15.94,0,0,0,645.88,241.52Z" transform="translate(187.99 -84.17)"/><path class="cls-5" d="M735.81,346.69h0v105.8A114.55,114.55,0,0,0,771,429.33,114.25,114.25,0,0,1,735.81,346.69Z" transform="translate(187.99 -84.17)"/><path class="cls-5" d="M850.46,232A114.26,114.26,0,0,0,771,264a114.33,114.33,0,0,1,35.21,82.66,44.24,44.24,0,0,1,88.47,0h70.42A114.65,114.65,0,0,0,850.46,232Z" transform="translate(187.99 -84.17)"/><polygon class="cls-5" points="994.22 262.52 994.22 262.52 994.22 262.52 994.22 262.52"/><path class="cls-5" d="M771,429.33a114.55,114.55,0,0,0,35.21,23.16V346.69h0A114.25,114.25,0,0,1,771,429.33Z" transform="translate(187.99 -84.17)"/><path class="cls-5" d="M894.7,452.49a114.68,114.68,0,0,0,70.42-105.8H894.7Z" transform="translate(187.99 -84.17)"/><path class="cls-5" d="M771,264a114.33,114.33,0,0,0-35.21,82.66h70.42A114.33,114.33,0,0,0,771,264Z" transform="translate(187.99 -84.17)"/><path class="cls-5" d="M771,429.33a114.25,114.25,0,0,0,35.21-82.64H735.81A114.25,114.25,0,0,0,771,429.33Z" transform="translate(187.99 -84.17)"/><path class="cls-5" d="M576.92,346.69h0V476.44a16.14,16.14,0,0,0,16.14,16.14H631.2a16.14,16.14,0,0,0,16.14-16.14V452.49A114.68,114.68,0,0,1,576.92,346.69Z" transform="translate(187.99 -84.17)"/><path class="cls-5" d="M647.34,452.49V346.69H576.92A114.68,114.68,0,0,0,647.34,452.49Z" transform="translate(187.99 -84.17)"/><path class="cls-8" d="M1170.49,362.31a59.85,59.85,0,1,1-59.85-59.85,59.85,59.85,0,0,1,59.85,59.85V248.18c0-.53,0-1.05.08-1.56a130.28,130.28,0,1,0,0,231.37c0-.51-.08-1-.08-1.55Z" transform="translate(187.99 -84.17)"/><polygon class="cls-8" points="1428.9 278.13 1428.9 278.14 1428.9 278.14 1428.9 278.13"/><path class="cls-6" d="M1240.91,362.3V248.18A16.14,16.14,0,0,0,1224.77,232h-38.14a16.14,16.14,0,0,0-16.06,14.58A130.24,130.24,0,0,1,1240.91,362.3Z" transform="translate(187.99 -84.17)"/><path class="cls-6" d="M1170.57,478a16.14,16.14,0,0,0,16.06,14.59h38.14a16.14,16.14,0,0,0,16.14-16.14V362.31A130.23,130.23,0,0,1,1170.57,478Z" transform="translate(187.99 -84.17)"/><path class="cls-6" d="M1170.57,246.62c0,.51-.08,1-.08,1.56V476.44c0,.52,0,1,.08,1.55a130.23,130.23,0,0,0,70.34-115.68h0A130.24,130.24,0,0,0,1170.57,246.62Z" transform="translate(187.99 -84.17)"/><path class="cls-4" d="M1599.72,320A59.88,59.88,0,0,1,1671,309.94l69.77-32.53a130.2,130.2,0,0,0-227.29,106l69.79-32.54A59.68,59.68,0,0,1,1599.72,320Z" transform="translate(187.99 -84.17)"/><path class="cls-4" d="M1642,492.58a129.72,129.72,0,0,0,78.1-26,16.14,16.14,0,0,0,1.83-24.34l-27.43-27.43a16.14,16.14,0,0,0-20.17-2.12,59.89,59.89,0,0,1-61.32,2l-69.76,32.54A129.94,129.94,0,0,0,1642,492.58Z" transform="translate(187.99 -84.17)"/><path class="cls-6" d="M1513.62,384.07l-.12-.67c.24,1.47.51,2.93.8,4.38-.16-.82-.31-1.65-.46-2.48C1513.77,384.89,1513.69,384.48,1513.62,384.07Z" transform="translate(187.99 -84.17)"/><path class="cls-6" d="M1749.4,288.57c-2.68-3.89-5.78-7.4-8.6-11.16L1671,309.94l-55.48,25.88-32.25,15-69.79,32.54c0,.22.07.45.11.67.07.41.15.82.22,1.23.15.83.3,1.66.46,2.48.24,1.2.5,2.39.77,3.58.11.51.23,1,.35,1.53.29,1.2.59,2.4.92,3.59.1.38.21.76.32,1.13.66,2.38,1.4,4.73,2.19,7.05.1.28.19.56.29.83.42,1.22.87,2.43,1.34,3.64.13.35.27.69.41,1,1.5,3.8,3.18,7.52,5,11.13l.36.71c2,3.8,4.1,7.48,6.42,11.05l.08.12a130.89,130.89,0,0,0,10.52,14l69.76-32.54,55.49-25.87,32.25-15,58.12-27.11a16.05,16.05,0,0,0,8.77-18.75A130.08,130.08,0,0,0,1749.4,288.57Z" transform="translate(187.99 -84.17)"/><polygon class="cls-6" points="1701.51 299.23 1701.49 299.23 1701.51 299.23 1701.51 299.23"/><polygon class="cls-6" points="1771.29 266.69 1701.51 299.23 1701.51 299.23 1771.29 266.69"/><path class="cls-6" d="M1513.51,383.4h0l.12.67C1513.58,383.85,1513.55,383.62,1513.51,383.4Z" transform="translate(187.99 -84.17)"/><path class="cls-7" d="M1853.83,478.09a15.71,15.71,0,0,1-.84,3.69A15.71,15.71,0,0,0,1853.83,478.09Z" transform="translate(187.99 -84.17)"/><path class="cls-7" d="M1849.19,487.85l-.11.1Z" transform="translate(187.99 -84.17)"/><path class="cls-7" d="M1799.64,492.58a16.14,16.14,0,0,1-16.14-16.14V328.28h.09c0-1.17-.09-2.34-.09-3.53a94.51,94.51,0,0,1,64-89.44,16.06,16.06,0,0,0-9.71-3.27h-38.14a16.14,16.14,0,0,0-16.14,16.14V476.44a16.14,16.14,0,0,0,16.14,16.14h38.14a16.07,16.07,0,0,0,8.55-2.47,16.07,16.07,0,0,1-8.55,2.47Z" transform="translate(187.99 -84.17)"/><path class="cls-9" d="M1854.2,328.28a24.24,24.24,0,0,1-.28-3.53v3.53Z" transform="translate(187.99 -84.17)"/><path class="cls-9" d="M1849.08,488a16,16,0,0,1-2.75,2.16A16,16,0,0,0,1849.08,488Z" transform="translate(187.99 -84.17)"/><path class="cls-9" d="M1853,481.78a16.11,16.11,0,0,1-3.8,6.07A16.11,16.11,0,0,0,1853,481.78Z" transform="translate(187.99 -84.17)"/><path class="cls-9" d="M1929.5,245.56a94.65,94.65,0,0,0-82-10.25,16.1,16.1,0,0,1,6.43,12.87v76.57a24.09,24.09,0,0,1,32-22.73,18,18,0,0,0,18.82-4l27.4-27.4A16.23,16.23,0,0,0,1929.5,245.56Z" transform="translate(187.99 -84.17)"/><path class="cls-9" d="M1847.49,235.31a94.51,94.51,0,0,0-64,89.44c0,1.19,0,2.36.09,3.53h-.09V476.44a16.14,16.14,0,0,0,16.14,16.14h38.14a16.28,16.28,0,0,0,11.3-4.63l.11-.1a16.11,16.11,0,0,0,3.8-6.07,15.71,15.71,0,0,0,.84-3.69,14.93,14.93,0,0,0,.09-1.65V248.18A16.1,16.1,0,0,0,1847.49,235.31Z" transform="translate(187.99 -84.17)"/><path class="cls-4" d="M1411.12,357.71l-46,55.88L1420,486.16a16.2,16.2,0,0,0,12.91,6.42h47.45a16.11,16.11,0,0,0,12.9-25.77C1470.15,436,1431.85,385.2,1411.12,357.71Z" transform="translate(187.99 -84.17)"/><path class="cls-8" d="M1343.7,358.5l30.42-23a16.12,16.12,0,0,1,22.6,3.13l14.4,19.08,81.68-99.23A16.16,16.16,0,0,0,1480.32,232H1431a16.08,16.08,0,0,0-12.43,5.87l-92,111.71V460.41l38.55-46.82-24.57-32.48A16.15,16.15,0,0,1,1343.7,358.5Z" transform="translate(187.99 -84.17)"/><path class="cls-8" d="M1396.72,338.63a16.12,16.12,0,0,0-22.6-3.13l-30.42,23a16.15,16.15,0,0,0-3.14,22.61l24.57,32.48,46-55.88Z" transform="translate(187.99 -84.17)"/><path class="cls-7" d="M1318.15,470.46,1276.34,436a16.13,16.13,0,0,1-2.2-22.71l52.44-63.71V100.31a16.13,16.13,0,0,0-16.14-16.14H1272.3a16.13,16.13,0,0,0-16.13,16.14V476.44a16.14,16.14,0,0,0,16.13,16.14h38.14a16.14,16.14,0,0,0,16.14-16.14v-16l-8.25,10Z" transform="translate(187.99 -84.17)"/><path class="cls-7" d="M1274.14,413.33a16.13,16.13,0,0,0,2.2,22.71l41.81,34.42.18,0,8.25-10V349.62Z" transform="translate(187.99 -84.17)"/><path class="cls-9" d="M-171.86,492.58h0a16.07,16.07,0,0,1-9-2.76A16.07,16.07,0,0,0-171.86,492.58Z" transform="translate(187.99 -84.17)"/><path class="cls-9" d="M-188,346.69a114.67,114.67,0,0,1,70.41-105.8V100.31a16.13,16.13,0,0,0-16.14-16.14h-38.14A16.13,16.13,0,0,0-188,100.31V476.44a16,16,0,0,0,2.75,9,16,16,0,0,1-2.75-9Z" transform="translate(187.99 -84.17)"/><path class="cls-10" d="M-73.34,232a114.27,114.27,0,0,0-44.24,8.85V476.44a16,16,0,0,1-4.73,11.41,16,16,0,0,0,4.73-11.41V346.69a44.24,44.24,0,0,1,44.24-44.23A44.24,44.24,0,0,1-29.1,346.69V476.44A16.14,16.14,0,0,0-13,492.58H25.17a16.14,16.14,0,0,0,16.14-16.14V346.69A114.65,114.65,0,0,0-73.34,232Z" transform="translate(187.99 -84.17)"/><path class="cls-10" d="M-123.45,488.89a16.57,16.57,0,0,1-2.57,1.74A16.57,16.57,0,0,0-123.45,488.89Z" transform="translate(187.99 -84.17)"/><path class="cls-10" d="M-117.58,240.89A114.67,114.67,0,0,0-188,346.69V476.44a16,16,0,0,0,2.75,9,16.15,16.15,0,0,0,4.36,4.36,16.07,16.07,0,0,0,9,2.76h38.14a16.12,16.12,0,0,0,7.7-1.95,16.57,16.57,0,0,0,2.57-1.74,14.06,14.06,0,0,0,1.14-1,16,16,0,0,0,4.73-11.41Z" transform="translate(187.99 -84.17)"/><path class="cls-11" d="M2386.42,362.31a59.86,59.86,0,1,1-59.85-59.85,59.86,59.86,0,0,1,59.85,59.85V248.18c0-.53,0-1.05.08-1.56a130.28,130.28,0,1,0,0,231.37c-.05-.51-.08-1-.08-1.55Z" transform="translate(187.99 -84.17)"/><path class="cls-6" d="M2440.7,232h-38.14a16.13,16.13,0,0,0-16.06,14.58,130.27,130.27,0,0,1,70.33,115.69V248.18A16.14,16.14,0,0,0,2440.7,232Z" transform="translate(187.99 -84.17)"/><path class="cls-6" d="M2386.5,478a16.13,16.13,0,0,0,16.06,14.59h38.14a16.14,16.14,0,0,0,16.13-16.14V362.31A130.25,130.25,0,0,1,2386.5,478Z" transform="translate(187.99 -84.17)"/><path class="cls-6" d="M2386.5,246.62c-.05.51-.08,1-.08,1.56V476.44c0,.52,0,1,.08,1.55a130.31,130.31,0,0,0,0-231.37Z" transform="translate(187.99 -84.17)"/><rect class="cls-6" x="2904.65" y="147.87" width="70.41" height="260.54" rx="16.14"/><circle class="cls-12" cx="2751.86" cy="119.38" r="35.21" transform="translate(1152.23 2130.78) rotate(-52.02)"/><path class="cls-13" d="M2992.44,362.31a59.85,59.85,0,1,1-59.85-59.85,59.85,59.85,0,0,1,59.85,59.85V248.18c0-.53,0-1.05.08-1.56a130.28,130.28,0,1,0,0,231.37c-.05-.51-.08-1-.08-1.55Z" transform="translate(187.99 -84.17)"/><polygon class="cls-13" points="3250.85 278.14 3250.85 278.13 3250.85 278.14 3250.85 278.14"/><path class="cls-6" d="M2992.52,478a16.14,16.14,0,0,0,16.06,14.59h38.14a16.14,16.14,0,0,0,16.14-16.14V362.31A130.23,130.23,0,0,1,2992.52,478Z" transform="translate(187.99 -84.17)"/><path class="cls-6" d="M3062.86,362.3V248.18A16.14,16.14,0,0,0,3046.72,232h-38.14a16.14,16.14,0,0,0-16.06,14.58A130.24,130.24,0,0,1,3062.86,362.3Z" transform="translate(187.99 -84.17)"/><path class="cls-6" d="M3062.86,362.31h0a130.24,130.24,0,0,0-70.34-115.68c-.05.51-.08,1-.08,1.56V476.44c0,.52,0,1,.08,1.55A130.23,130.23,0,0,0,3062.86,362.31Z" transform="translate(187.99 -84.17)"/><path class="cls-9" d="M2542.51,240.89V100.31a16.14,16.14,0,0,0-16.14-16.14h-38.14a16.14,16.14,0,0,0-16.14,16.14V346.69A114.68,114.68,0,0,1,2542.51,240.89Z" transform="translate(187.99 -84.17)"/><path class="cls-9" d="M2472.09,476.44a16,16,0,0,0,1.27,6.28,16,16,0,0,1-1.27-6.28Z" transform="translate(187.99 -84.17)"/><path class="cls-14" d="M2586.74,232a114.22,114.22,0,0,0-44.23,8.85V476.44a16.08,16.08,0,0,1-4.73,11.41,16.08,16.08,0,0,0,4.73-11.41V346.69a44.24,44.24,0,0,1,88.47,0V476.44a16.14,16.14,0,0,0,16.14,16.14h38.14a16.14,16.14,0,0,0,16.14-16.14V346.69A114.66,114.66,0,0,0,2586.74,232Z" transform="translate(187.99 -84.17)"/><path class="cls-14" d="M2526.37,492.58a16.19,16.19,0,0,0,6.28-1.27,16.19,16.19,0,0,1-6.28,1.27Z" transform="translate(187.99 -84.17)"/><path class="cls-14" d="M2537.78,487.85a16.35,16.35,0,0,1-3.72,2.78A16.35,16.35,0,0,0,2537.78,487.85Z" transform="translate(187.99 -84.17)"/><path class="cls-14" d="M2542.51,240.89a114.68,114.68,0,0,0-70.42,105.8V476.44a16.13,16.13,0,0,0,16.14,16.14h38.14a16.19,16.19,0,0,0,6.28-1.27c.48-.21.95-.43,1.41-.68a16.35,16.35,0,0,0,3.72-2.78,16.08,16.08,0,0,0,4.73-11.41Z" transform="translate(187.99 -84.17)"/><path class="cls-6" d="M2066.39,104.38V174.8h0a44.24,44.24,0,1,1,0,88.47,114.31,114.31,0,0,1,82.66,35.21,114.65,114.65,0,0,0-82.66-194.1Z" transform="translate(187.99 -84.17)"/><path class="cls-6" d="M2012,118.11a114.07,114.07,0,0,1,54.41-13.73H2001.1A70.94,70.94,0,0,1,2012,118.11Z" transform="translate(187.99 -84.17)"/><path class="cls-6" d="M2022.15,154.58h0V174.8h44.24V104.38A114.07,114.07,0,0,0,2012,118.11,70.12,70.12,0,0,1,2022.15,154.58Z" transform="translate(187.99 -84.17)"/><polygon class="cls-7" points="2210.15 337.99 2210.15 249.52 2148.59 249.52 2148.59 249.52 2139.73 249.52 2139.73 337.99 2148.59 337.99 2210.15 337.99"/><path class="cls-7" d="M2022.15,263.27V174.8h-61.56a114.65,114.65,0,0,1,11-20.21V104.38h29.52a70.2,70.2,0,0,0-49.36-20.21H1937a16,16,0,0,0-16,16V138.8a15.78,15.78,0,0,0,15.78,15.78h0a15,15,0,0,1,15,14.95v93.74h70.41Z" transform="translate(187.99 -84.17)"/><path class="cls-7" d="M1971.58,154.59a114.65,114.65,0,0,0-11,20.21h11Z" transform="translate(187.99 -84.17)"/><path class="cls-7" d="M1971.58,154.59a115.19,115.19,0,0,1,40.4-36.48,70.94,70.94,0,0,0-10.88-13.73h-29.52Z" transform="translate(187.99 -84.17)"/><path class="cls-7" d="M2022.15,154.58A70.12,70.12,0,0,0,2012,118.11a115.19,115.19,0,0,0-40.4,36.48V174.8h50.57V154.58Z" transform="translate(187.99 -84.17)"/><path class="cls-4" d="M2066.39,333.69a44.24,44.24,0,1,1,0,88.47v70.42a114.65,114.65,0,0,0,82.66-194.1A114.31,114.31,0,0,1,2066.39,333.69Z" transform="translate(187.99 -84.17)"/><polygon class="cls-4" points="2210.15 249.52 2254.38 249.52 2254.37 249.52 2210.15 249.52 2210.15 249.52"/><path class="cls-4" d="M2066.39,263.27v70.42h0a114.31,114.31,0,0,0,82.66-35.21A114.31,114.31,0,0,0,2066.39,263.27Z" transform="translate(187.99 -84.17)"/><polygon class="cls-4" points="2148.59 249.52 2148.59 249.52 2210.15 249.52 2210.15 249.52 2148.59 249.52"/><path class="cls-4" d="M1967.87,472.36a16.13,16.13,0,0,1-16.13-16.13V422.16h0v54.28a16.14,16.14,0,0,0,16.13,16.14h98.52a114,114,0,0,1-65-20.22Z" transform="translate(187.99 -84.17)"/><path class="cls-4" d="M1967.87,472.36h33.52a115.07,115.07,0,0,1-40.8-50.2h-8.85v34.07A16.13,16.13,0,0,0,1967.87,472.36Z" transform="translate(187.99 -84.17)"/><path class="cls-4" d="M2022.15,422.16v34.07A16.13,16.13,0,0,1,2006,472.36h-4.63a114,114,0,0,0,65,20.22V422.16Z" transform="translate(187.99 -84.17)"/><path class="cls-4" d="M2001.39,472.36H2006a16.13,16.13,0,0,0,16.13-16.13V422.16h-61.56A115.07,115.07,0,0,0,2001.39,472.36Z" transform="translate(187.99 -84.17)"/><rect class="cls-4" x="2139.73" y="179.1" height="70.41"/><path class="cls-4" d="M2022.15,272.14a114.32,114.32,0,0,1,44.24-8.87h-44.24Z" transform="translate(187.99 -84.17)"/><path class="cls-4" d="M1983.75,298.48a114.73,114.73,0,0,1-23.16-35.21h-8.85v70.42h8.85A114.73,114.73,0,0,1,1983.75,298.48Z" transform="translate(187.99 -84.17)"/><path class="cls-4" d="M2022.15,272.14v-8.87h-61.56a114.73,114.73,0,0,0,23.16,35.21A114.73,114.73,0,0,1,2022.15,272.14Z" transform="translate(187.99 -84.17)"/><path class="cls-4" d="M2022.15,333.69h44.23a114.42,114.42,0,0,1-44.23-8.87Z" transform="translate(187.99 -84.17)"/><path class="cls-4" d="M2022.15,324.82a114.42,114.42,0,0,0,44.23,8.87h0V263.27a114.32,114.32,0,0,0-44.24,8.87Z" transform="translate(187.99 -84.17)"/><path class="cls-4" d="M2022.15,324.82a114.88,114.88,0,0,1-38.4-26.34,114.73,114.73,0,0,0-23.16,35.21h61.56Z" transform="translate(187.99 -84.17)"/><path class="cls-4" d="M2022.15,324.82V272.14a114.73,114.73,0,0,0-38.4,26.34A114.88,114.88,0,0,0,2022.15,324.82Z" transform="translate(187.99 -84.17)"/></g><g class="cls-3"><path class="cls-1" d="M881.94,805.71a59.86,59.86,0,1,0,59.85,59.86h0A59.86,59.86,0,0,0,881.94,805.71Z" transform="translate(187.99 -84.17)"/><path class="cls-1" d="M2816.05,823.24a59.72,59.72,0,0,0-16.42,30.87l32.25-15,55.48-25.87a59.85,59.85,0,0,0-71.31,10Z" transform="translate(187.99 -84.17)"/><circle class="cls-1" cx="275.91" cy="865.56" r="59.85" transform="translate(-343.24 364.45) rotate(-45)"/><path class="cls-1" d="M2730.63,891c.24,1.2.5,2.4.77,3.59-.27-1.19-.53-2.39-.77-3.59Z" transform="translate(187.99 -84.17)"/><circle class="cls-1" cx="1647.73" cy="865.56" r="59.85" transform="translate(855.53 2363.62) rotate(-85.93)"/><path class="cls-1" d="M-28.5,925.42H15.74a44.24,44.24,0,1,0,0-88.48H-28.5Z" transform="translate(187.99 -84.17)"/><circle class="cls-1" cx="2514.97" cy="781.39" r="59.85"/><path class="cls-1" d="M15.74,766.53a44.24,44.24,0,0,0,0-88.48H-28.5v88.48Z" transform="translate(187.99 -84.17)"/><path class="cls-8" d="M15.74,607.64v70.41h0a44.24,44.24,0,0,1,0,88.48,114.3,114.3,0,0,1,82.66,35.2,114.24,114.24,0,0,0,32-79.44A114.65,114.65,0,0,0,15.74,607.64Z" transform="translate(187.99 -84.17)"/><path class="cls-8" d="M-38.67,621.36a114.06,114.06,0,0,1,54.41-13.72h-65.3A70.55,70.55,0,0,1-38.67,621.36Z" transform="translate(187.99 -84.17)"/><path class="cls-8" d="M-28.5,657.84h0v20.21H15.74V607.64a114.06,114.06,0,0,0-54.41,13.72A70.16,70.16,0,0,1-28.5,657.84Z" transform="translate(187.99 -84.17)"/><path class="cls-7" d="M1647.73,735.29a129.66,129.66,0,0,0-59.85,14.55V865.56a59.85,59.85,0,1,1,59.85,59.86,59.85,59.85,0,0,1-59.85-59.86V979.69c0,.53,0,1-.08,1.56a130.28,130.28,0,1,0,59.93-246Z" transform="translate(187.99 -84.17)"/><polygon class="cls-7" points="1705.45 781.39 1705.45 781.4 1705.45 781.39 1705.45 781.39"/><path class="cls-10" d="M1517.46,865.57V979.69a16.13,16.13,0,0,0,16.14,16.14h38.14a16.14,16.14,0,0,0,16.06-14.58A130.24,130.24,0,0,1,1517.46,865.57Z" transform="translate(187.99 -84.17)"/><path class="cls-10" d="M1587.88,749.84V603.56a16.14,16.14,0,0,0-16.14-16.14H1533.6a16.14,16.14,0,0,0-16.14,16.14v262A130.23,130.23,0,0,1,1587.88,749.84Z" transform="translate(187.99 -84.17)"/><path class="cls-10" d="M1587.88,865.56V749.84a130.23,130.23,0,0,0-70.42,115.72h0a130.24,130.24,0,0,0,70.34,115.68c0-.51.08-1,.08-1.56Z" transform="translate(187.99 -84.17)"/><path class="cls-7" d="M1502.2,751.43V881.18a114.68,114.68,0,0,1-69,105.18,16.13,16.13,0,0,0,14.69,9.47h38.14a16.13,16.13,0,0,0,16.13-16.14V751.43a16,16,0,0,0-2.75-9A16,16,0,0,1,1502.2,751.43Z" transform="translate(187.99 -84.17)"/><path class="cls-7" d="M1498,740.62a14,14,0,0,0-1.09-1.09A14,14,0,0,1,1498,740.62Z" transform="translate(187.99 -84.17)"/><path class="cls-5" d="M1431.79,751.43a16.09,16.09,0,0,1,4.72-11.41,16.09,16.09,0,0,0-4.72,11.41V881.18a44.24,44.24,0,0,1-88.48,0V751.43a16.14,16.14,0,0,0-16.13-16.14H1289a16.14,16.14,0,0,0-16.14,16.14V881.18a114.7,114.7,0,0,0,160.34,105.18,16.17,16.17,0,0,1-1.45-6.67Z" transform="translate(187.99 -84.17)"/><path class="cls-5" d="M1498,740.62a17.52,17.52,0,0,1,1.43,1.79A17.52,17.52,0,0,0,1498,740.62Z" transform="translate(187.99 -84.17)"/><path class="cls-5" d="M1486.07,735.29a16.06,16.06,0,0,1,10.86,4.24,16.06,16.06,0,0,0-10.86-4.24h-38.14a16.12,16.12,0,0,0-11.42,4.73,16.12,16.12,0,0,1,11.42-4.73Z" transform="translate(187.99 -84.17)"/><path class="cls-5" d="M1502.2,881.18V751.43a16,16,0,0,0-2.75-9,17.52,17.52,0,0,0-1.43-1.79,14,14,0,0,0-1.09-1.09,16.06,16.06,0,0,0-10.86-4.24h-38.14a16.13,16.13,0,0,0-16.14,16.14V979.69a16.17,16.17,0,0,0,1.45,6.67A114.68,114.68,0,0,0,1502.2,881.18Z" transform="translate(187.99 -84.17)"/><path class="cls-5" d="M1863.67,979.69a16.11,16.11,0,0,1-5.88,12.46,16.11,16.11,0,0,0,5.88-12.46v-24h0Z" transform="translate(187.99 -84.17)"/><path class="cls-5" d="M1862.22,744.77a16.14,16.14,0,0,0-14.69-9.47h-38.14a16.14,16.14,0,0,0-16.14,16.13V850A114.67,114.67,0,0,1,1862.22,744.77Z" transform="translate(187.99 -84.17)"/><path class="cls-5" d="M1809.39,995.83h0a16.21,16.21,0,0,1-4.8-.72A16.21,16.21,0,0,0,1809.39,995.83Z" transform="translate(187.99 -84.17)"/><path class="cls-5" d="M1857.79,992.15a16.17,16.17,0,0,1-5.46,3A16.17,16.17,0,0,0,1857.79,992.15Z" transform="translate(187.99 -84.17)"/><path class="cls-15" d="M1796,988.72a16.26,16.26,0,0,0,4.36,4.35A16.26,16.26,0,0,1,1796,988.72Z" transform="translate(187.99 -84.17)"/><path class="cls-15" d="M1804.59,995.11a16.16,16.16,0,0,1-4.22-2A16.16,16.16,0,0,0,1804.59,995.11Z" transform="translate(187.99 -84.17)"/><path class="cls-15" d="M2066.79,735.3a114.25,114.25,0,0,0-79.44,32,114.76,114.76,0,0,0-125.13-22.51,16.09,16.09,0,0,1,1.45,6.66V955.74h0V850a44.24,44.24,0,1,1,88.47,0h0V979.69a16.14,16.14,0,0,0,16.14,16.14h38.14a16.14,16.14,0,0,0,16.14-16.14V850h0a44.24,44.24,0,1,1,88.47,0V955.74h0v24a16.14,16.14,0,0,0,16.14,16.14h38.14a16.14,16.14,0,0,0,16.14-16.14V850h0A114.65,114.65,0,0,0,2066.79,735.3Z" transform="translate(187.99 -84.17)"/><path class="cls-15" d="M1862.22,744.77a114.67,114.67,0,0,0-69,105.18h0V979.69a16.08,16.08,0,0,0,2.76,9,16.06,16.06,0,0,0,13.38,7.11h38.14a16.14,16.14,0,0,0,16.14-16.14v-24h0V751.43A16.09,16.09,0,0,0,1862.22,744.77Z" transform="translate(187.99 -84.17)"/><path class="cls-6" d="M2386.82,865.56A59.85,59.85,0,1,1,2327,805.71a59.85,59.85,0,0,1,59.85,59.85V751.43c0-.52,0-1,.08-1.55a130.27,130.27,0,1,0,0,231.37c-.05-.51-.08-1-.08-1.56Z" transform="translate(187.99 -84.17)"/><path class="cls-16" d="M2386.9,981.25A16.14,16.14,0,0,0,2403,995.83h38.14a16.14,16.14,0,0,0,16.14-16.14V865.56A130.24,130.24,0,0,1,2386.9,981.25Z" transform="translate(187.99 -84.17)"/><path class="cls-16" d="M2441.1,735.3H2403a16.13,16.13,0,0,0-16.06,14.58,130.24,130.24,0,0,1,70.34,115.68V751.43A16.14,16.14,0,0,0,2441.1,735.3Z" transform="translate(187.99 -84.17)"/><path class="cls-16" d="M2386.9,749.88c-.05.51-.08,1-.08,1.55V979.69c0,.53,0,1,.08,1.56a130.3,130.3,0,0,0,0-231.37Z" transform="translate(187.99 -84.17)"/><path class="cls-17" d="M2816.05,823.24a59.85,59.85,0,0,1,71.31-10l69.77-32.54a130.22,130.22,0,0,0-227.29,106l69.79-32.54A59.72,59.72,0,0,1,2816.05,823.24Z" transform="translate(187.99 -84.17)"/><path class="cls-17" d="M2858.37,995.83a129.66,129.66,0,0,0,78.1-26,16.14,16.14,0,0,0,1.83-24.34l-27.43-27.43a16.15,16.15,0,0,0-20.17-2.12,59.86,59.86,0,0,1-61.32,2l-69.76,32.53A129.9,129.9,0,0,0,2858.37,995.83Z" transform="translate(187.99 -84.17)"/><polygon class="cls-6" points="2917.84 802.48 2917.82 802.49 2917.84 802.48 2917.84 802.48"/><path class="cls-6" d="M2730,887.33l-.12-.67c.24,1.46.51,2.92.8,4.37-.16-.82-.31-1.65-.46-2.47C2730.1,888.15,2730,887.74,2730,887.33Z" transform="translate(187.99 -84.17)"/><path class="cls-6" d="M2965.73,791.82c-2.68-3.89-5.77-7.39-8.6-11.16l-69.77,32.54-55.48,25.87-32.25,15-69.79,32.54c0,.22.07.45.11.68.07.41.15.82.22,1.23.15.82.3,1.65.46,2.47.24,1.2.5,2.4.77,3.59.11.51.23,1,.35,1.52.29,1.21.59,2.41.92,3.6.1.38.21.75.32,1.13q1,3.57,2.19,7c.1.27.19.55.29.82.42,1.23.87,2.44,1.34,3.64.13.35.27.7.41,1q2.27,5.7,5,11.13l.37.71c2,3.79,4.1,7.48,6.41,11l.08.13a130.77,130.77,0,0,0,10.52,14l69.76-32.53,55.49-25.87,32.25-15,58.12-27.11a16.06,16.06,0,0,0,8.77-18.75A130.24,130.24,0,0,0,2965.73,791.82Z" transform="translate(187.99 -84.17)"/><polygon class="cls-6" points="2987.62 769.94 2917.84 802.48 2917.84 802.48 2987.62 769.94"/><path class="cls-6" d="M2729.84,886.65h0l.12.67C2729.91,887.1,2729.88,886.87,2729.84,886.65Z" transform="translate(187.99 -84.17)"/><polygon class="cls-18" points="3258.24 743.84 3258.24 743.84 3258.24 743.84 3258.24 743.84"/><path class="cls-18" d="M3070.25,979.69a16.14,16.14,0,0,1-16.14,16.14H3016a16.14,16.14,0,0,1-16.14-16.14V831.53h.09c0-1.17-.09-2.34-.09-3.52a94.52,94.52,0,0,1,64-89.45,16.05,16.05,0,0,0-9.71-3.26H3016a16.14,16.14,0,0,0-16.14,16.13V979.69A16.14,16.14,0,0,0,3016,995.83h38.14a16.14,16.14,0,0,0,16.14-16.14V831.53h0Z" transform="translate(187.99 -84.17)"/><path class="cls-9" d="M3070.53,831.53a25.46,25.46,0,0,1-.28-3.52v3.52Z" transform="translate(187.99 -84.17)"/><path class="cls-9" d="M3145.83,748.81a94.65,94.65,0,0,0-82-10.25,16.1,16.1,0,0,1,6.43,12.87V828a24.07,24.07,0,0,1,32-22.73,18,18,0,0,0,18.82-4l27.4-27.41A16.23,16.23,0,0,0,3145.83,748.81Z" transform="translate(187.99 -84.17)"/><path class="cls-9" d="M3063.82,738.56a94.52,94.52,0,0,0-64,89.45c0,1.18.05,2.35.09,3.52h-.09V979.69A16.14,16.14,0,0,0,3016,995.83h38.14a16.14,16.14,0,0,0,16.14-16.14V831.53h0V828h0V751.43A16.1,16.1,0,0,0,3063.82,738.56Z" transform="translate(187.99 -84.17)"/><path class="cls-10" d="M2627.45,861l-46,55.87,54.88,72.57a16.2,16.2,0,0,0,12.91,6.42h47.45a16.11,16.11,0,0,0,12.9-25.77C2686.48,939.26,2648.18,888.46,2627.45,861Z" transform="translate(187.99 -84.17)"/><path class="cls-5" d="M2560,861.76l30.42-23a16.13,16.13,0,0,1,22.6,3.14l14.4,19.08,81.68-99.23a16.17,16.17,0,0,0-12.48-26.45H2647.3a16.12,16.12,0,0,0-12.43,5.87l-92,111.71v110.8l38.55-46.83-24.57-32.48A16.13,16.13,0,0,1,2560,861.76Z" transform="translate(187.99 -84.17)"/><path class="cls-5" d="M2613.05,841.89a16.13,16.13,0,0,0-22.6-3.14l-30.42,23a16.13,16.13,0,0,0-3.14,22.6l24.57,32.48,46-55.87Z" transform="translate(187.99 -84.17)"/><path class="cls-15" d="M2534.48,973.71l-41.81-34.42a16.13,16.13,0,0,1-2.2-22.71l52.44-63.71V603.56a16.14,16.14,0,0,0-16.14-16.14h-38.14a16.14,16.14,0,0,0-16.13,16.14V979.69a16.13,16.13,0,0,0,16.13,16.14h38.14a16.13,16.13,0,0,0,16.14-16.14v-16l-8.25,10Z" transform="translate(187.99 -84.17)"/><path class="cls-15" d="M2490.47,916.58a16.13,16.13,0,0,0,2.2,22.71l41.81,34.42.18,0,8.25-10V852.87Z" transform="translate(187.99 -84.17)"/><path class="cls-9" d="M1030.28,987.39a17.26,17.26,0,0,1-1.22-2.9A17.26,17.26,0,0,0,1030.28,987.39Z" transform="translate(187.99 -84.17)"/><path class="cls-9" d="M1028.34,979.69a16.16,16.16,0,0,0,.72,4.8,16.16,16.16,0,0,1-.72-4.8Z" transform="translate(187.99 -84.17)"/><path class="cls-9" d="M1098.75,744.15V603.56a16.14,16.14,0,0,0-16.13-16.14h-38.15a16.14,16.14,0,0,0-16.13,16.14V850A114.67,114.67,0,0,1,1098.75,744.15Z" transform="translate(187.99 -84.17)"/><path class="cls-15" d="M1143,735.29a114.28,114.28,0,0,0-44.24,8.86V979.69a16.13,16.13,0,0,1-16.13,16.14h-38.15a16.12,16.12,0,0,1-13.38-7.11,16.12,16.12,0,0,0,13.38,7.11h38.15a16.13,16.13,0,0,0,16.13-16.14V850a44.24,44.24,0,0,1,88.48,0V979.69a16.13,16.13,0,0,0,16.13,16.14h38.15a16.13,16.13,0,0,0,16.13-16.14V850A114.66,114.66,0,0,0,1143,735.29Z" transform="translate(187.99 -84.17)"/><path class="cls-15" d="M1044.47,995.83h38.15a16.13,16.13,0,0,0,16.13-16.14V744.15A114.67,114.67,0,0,0,1028.34,850V979.69a16.16,16.16,0,0,0,.72,4.8,17.26,17.26,0,0,0,1.22,2.9c.25.45.52.9.81,1.33A16.12,16.12,0,0,0,1044.47,995.83Z" transform="translate(187.99 -84.17)"/><path class="cls-5" d="M335.77,865.56a59.86,59.86,0,1,1-59.86-59.85,59.86,59.86,0,0,1,59.86,59.85V751.43c0-.52,0-1,.08-1.55a130.27,130.27,0,1,0,0,231.37c-.05-.51-.08-1-.08-1.56Z" transform="translate(187.99 -84.17)"/><path class="cls-7" d="M390.05,735.3H351.9a16.12,16.12,0,0,0-16,14.58,130.25,130.25,0,0,1,70.33,115.68V751.43A16.13,16.13,0,0,0,390.05,735.3Z" transform="translate(187.99 -84.17)"/><path class="cls-7" d="M335.85,981.25a16.13,16.13,0,0,0,16,14.58h38.15a16.13,16.13,0,0,0,16.13-16.14V865.56A130.25,130.25,0,0,1,335.85,981.25Z" transform="translate(187.99 -84.17)"/><path class="cls-7" d="M335.85,749.88c-.05.51-.08,1-.08,1.55V979.69c0,.53,0,1,.08,1.56a130.31,130.31,0,0,0,0-231.37Z" transform="translate(187.99 -84.17)"/><rect class="cls-8" x="853.99" y="651.13" width="70.42" height="260.54" rx="16.14"/><circle class="cls-6" cx="889.2" cy="538.46" r="35.21"/><path class="cls-7" d="M941.79,865.57a59.85,59.85,0,1,1-59.85-59.86,59.86,59.86,0,0,1,59.85,59.86V751.43c0-.52,0-1,.08-1.55a130.27,130.27,0,1,0,0,231.37c0-.51-.08-1-.08-1.56Z" transform="translate(187.99 -84.17)"/><path class="cls-4" d="M996.07,735.3H957.93a16.13,16.13,0,0,0-16.06,14.58,130.24,130.24,0,0,1,70.34,115.68V751.43A16.14,16.14,0,0,0,996.07,735.3Z" transform="translate(187.99 -84.17)"/><polygon class="cls-4" points="1129.79 781.39 1129.79 781.39 1129.79 781.4 1129.79 781.39"/><path class="cls-4" d="M941.87,981.25a16.13,16.13,0,0,0,16.06,14.58h38.14a16.14,16.14,0,0,0,16.14-16.14V865.56A130.24,130.24,0,0,1,941.87,981.25Z" transform="translate(187.99 -84.17)"/><path class="cls-4" d="M941.87,749.88c0,.51-.08,1-.08,1.55V865.56h0V979.69c0,.53,0,1,.08,1.56a130.3,130.3,0,0,0,0-231.37Z" transform="translate(187.99 -84.17)"/><path class="cls-10" d="M421.44,979.69a16.16,16.16,0,0,0,.72,4.8,16.16,16.16,0,0,1-.72-4.8Z" transform="translate(187.99 -84.17)"/><path class="cls-10" d="M491.85,744.15V603.56a16.14,16.14,0,0,0-16.13-16.14H437.58a16.14,16.14,0,0,0-16.14,16.14V850A114.68,114.68,0,0,1,491.85,744.15Z" transform="translate(187.99 -84.17)"/><path class="cls-10" d="M423.39,987.39a16.51,16.51,0,0,1-1.23-2.9A16.51,16.51,0,0,0,423.39,987.39Z" transform="translate(187.99 -84.17)"/><path class="cls-9" d="M536.09,735.29a114.31,114.31,0,0,0-44.24,8.86V979.69a16.13,16.13,0,0,1-16.13,16.14H437.58a16.14,16.14,0,0,1-13.39-7.11,16.14,16.14,0,0,0,13.39,7.11h38.14a16.13,16.13,0,0,0,16.13-16.14V850a44.24,44.24,0,0,1,88.48,0V979.69a16.13,16.13,0,0,0,16.14,16.14h38.14a16.13,16.13,0,0,0,16.13-16.14V850A114.66,114.66,0,0,0,536.09,735.29Z" transform="translate(187.99 -84.17)"/><path class="cls-9" d="M437.58,995.83h38.14a16.13,16.13,0,0,0,16.13-16.14V744.15A114.68,114.68,0,0,0,421.44,850V979.69a16.16,16.16,0,0,0,.72,4.8,16.51,16.51,0,0,0,1.23,2.9,15.12,15.12,0,0,0,.8,1.33A16.14,16.14,0,0,0,437.58,995.83Z" transform="translate(187.99 -84.17)"/><polygon class="cls-6" points="159.49 841.25 159.49 752.77 97.94 752.77 97.94 752.77 89.08 752.77 89.08 841.25 97.94 841.25 159.49 841.25"/><path class="cls-6" d="M-28.5,766.53V678.05H-90.06a115,115,0,0,1,11-20.21v-50.2h29.51a70.15,70.15,0,0,0-49.35-20.22h-14.74a16,16,0,0,0-16,16v38.65a15.79,15.79,0,0,0,15.78,15.78,14.94,14.94,0,0,1,15,14.94v93.75H-28.5Z" transform="translate(187.99 -84.17)"/><path class="cls-6" d="M-79.07,657.84a115,115,0,0,0-11,20.21h11Z" transform="translate(187.99 -84.17)"/><path class="cls-6" d="M-79.07,657.84a115.2,115.2,0,0,1,40.4-36.48,70.55,70.55,0,0,0-10.89-13.72H-79.07Z" transform="translate(187.99 -84.17)"/><path class="cls-6" d="M-28.5,657.84a70.16,70.16,0,0,0-10.17-36.48,115.2,115.2,0,0,0-40.4,36.48v20.21H-28.5V657.84Z" transform="translate(187.99 -84.17)"/><path class="cls-15" d="M15.74,836.94a44.24,44.24,0,1,1,0,88.48v70.41A114.65,114.65,0,0,0,130.39,881.18a114.29,114.29,0,0,0-32-79.45A114.31,114.31,0,0,1,15.74,836.94Z" transform="translate(187.99 -84.17)"/><polygon class="cls-15" points="159.49 752.77 203.73 752.77 203.72 752.77 159.49 752.77 159.49 752.77"/><path class="cls-15" d="M15.74,766.53v70.41h0A114.31,114.31,0,0,0,98.4,801.73,114.3,114.3,0,0,0,15.74,766.53Z" transform="translate(187.99 -84.17)"/><polygon class="cls-15" points="97.94 752.77 97.94 752.77 159.49 752.77 159.49 752.77 97.94 752.77"/><path class="cls-15" d="M-82.78,975.62a16.14,16.14,0,0,1-16.13-16.14V979.7a16.13,16.13,0,0,0,16.13,16.13H15.74a114.09,114.09,0,0,1-65-20.21Z" transform="translate(187.99 -84.17)"/><path class="cls-15" d="M-82.78,975.62h33.52a115.13,115.13,0,0,1-40.8-50.2h-8.85v34.06A16.14,16.14,0,0,0-82.78,975.62Z" transform="translate(187.99 -84.17)"/><path class="cls-15" d="M-28.5,925.42v34.06a16.14,16.14,0,0,1-16.14,16.14h-4.62a114.09,114.09,0,0,0,65,20.21V925.42Z" transform="translate(187.99 -84.17)"/><path class="cls-15" d="M-49.26,975.62h4.62A16.14,16.14,0,0,0-28.5,959.48V925.42H-90.06A115.13,115.13,0,0,0-49.26,975.62Z" transform="translate(187.99 -84.17)"/><path class="cls-15" d="M-28.5,775.39a114.24,114.24,0,0,1,44.24-8.86H-28.5Z" transform="translate(187.99 -84.17)"/><path class="cls-15" d="M-66.9,801.73a114.8,114.8,0,0,1-23.16-35.2h-8.85v70.41h8.85A114.85,114.85,0,0,1-66.9,801.73Z" transform="translate(187.99 -84.17)"/><path class="cls-15" d="M-28.5,775.39v-8.86H-90.06a114.8,114.8,0,0,0,23.16,35.2A115,115,0,0,1-28.5,775.39Z" transform="translate(187.99 -84.17)"/><path class="cls-15" d="M-28.5,836.94H15.73a114.23,114.23,0,0,1-44.23-8.87Z" transform="translate(187.99 -84.17)"/><path class="cls-15" d="M-28.5,828.07a114.23,114.23,0,0,0,44.23,8.87h0V766.53a114.24,114.24,0,0,0-44.24,8.86Z" transform="translate(187.99 -84.17)"/><path class="cls-15" d="M-28.5,828.07a114.73,114.73,0,0,1-38.4-26.34,114.85,114.85,0,0,0-23.16,35.21H-28.5Z" transform="translate(187.99 -84.17)"/><path class="cls-15" d="M-28.5,828.07V775.39a115,115,0,0,0-38.4,26.34A114.73,114.73,0,0,0-28.5,828.07Z" transform="translate(187.99 -84.17)"/></g></g></svg>