<svg id="Camada_1" data-name="Camada 1" xmlns="http://www.w3.org/2000/svg" viewBox="0 0 548.25 328.87"><defs><style>.cls-1{fill:none;}.cls-2,.cls-3{fill:#fff;}.cls-2{opacity:0.5;}.cls-4{fill:#e51f40;}.cls-5{fill:#e55196;}.cls-6{fill:#16a338;}.cls-7{fill:#283c8e;}</style></defs><path class="cls-1" d="M377.9,238.34c.09.48.2,1,.31,1.44-.11-.48-.21-1-.31-1.44Z" transform="translate(0)"/><polygon class="cls-1" points="405.71 223.45 377.58 236.57 377.58 236.57 405.71 223.45"/><path class="cls-1" d="M412.33,211a24,24,0,0,0-6.62,12.44l13-6.06L441.08,207a24.12,24.12,0,0,0-28.75,4Z" transform="translate(0)"/><circle class="cls-1" cx="249.7" cy="112.13" r="24.13"/><path class="cls-1" d="M377.62,236.84l.09.5h0l-.09-.5Z" transform="translate(0)"/><circle class="cls-1" cx="215.16" cy="228.07" r="24.13"/><path class="cls-2" d="M281.21,115.94h13.63a7.37,7.37,0,0,1,6.74,4.38,52.51,52.51,0,0,0-76-54.83v46.64a24.13,24.13,0,1,1,24.13,24.13,24.13,24.13,0,0,1-24.13-24.13v45.14a7.46,7.46,0,0,1-.14,1.43,52.46,52.46,0,0,0,48.4.07V123.32A7.37,7.37,0,0,1,281.21,115.94Z" transform="translate(0)"/><path class="cls-3" d="M218.2,0H204.56a7.37,7.37,0,0,0-7.37,7.38V157.27a7.38,7.38,0,0,0,7.37,7.38H218.2a7.37,7.37,0,0,0,7.23-6,7.46,7.46,0,0,0,.14-1.43V7.38A7.37,7.37,0,0,0,218.2,0Z" transform="translate(0)"/><path class="cls-3" d="M163.5,160.7a7.35,7.35,0,0,0,6.52,4h13.64a7.39,7.39,0,0,0,7.38-7.38V118.42A46.24,46.24,0,0,1,163.5,160.7Z" transform="translate(0)"/><path class="cls-4" d="M191,67v-.87a6.52,6.52,0,0,0-6.51-6.51h-.87A7.39,7.39,0,0,1,191,67Z" transform="translate(0)"/><path class="cls-2" d="M183.66,59.61H169.15a6.51,6.51,0,0,0-6.5,6.51v52.3a17.84,17.84,0,1,1-35.67,0V66.12a6.51,6.51,0,0,0-6.51-6.51H105.1a6.52,6.52,0,0,0-6.51,6.51v52.3a46.23,46.23,0,0,0,92.45,0V67A7.39,7.39,0,0,0,183.66,59.61Z" transform="translate(0)"/><path class="cls-2" d="M28.39,63.18V7.38A7.38,7.38,0,0,0,21,0H7.38A7.37,7.37,0,0,0,0,7.38v98.45A46.23,46.23,0,0,1,28.39,63.18Z" transform="translate(0)"/><path class="cls-5" d="M6.51,164.65h.87A7.38,7.38,0,0,1,0,157.27v.87A6.51,6.51,0,0,0,6.51,164.65Z" transform="translate(0)"/><path class="cls-3" d="M46.22,59.61A46.2,46.2,0,0,0,0,105.83v51.44a7.38,7.38,0,0,0,7.38,7.38h14.5a6.52,6.52,0,0,0,6.51-6.51V105.83a17.84,17.84,0,0,1,35.67,0v52.31a6.51,6.51,0,0,0,6.5,6.51H85.94a6.51,6.51,0,0,0,6.5-6.51V105.83A46.22,46.22,0,0,0,46.22,59.61Z" transform="translate(0)"/><path class="cls-3" d="M27.54,179.5A7.37,7.37,0,0,0,21,175.55H7.38A7.37,7.37,0,0,0,0,182.93v38.84A46.22,46.22,0,0,1,27.54,179.5Z" transform="translate(0)"/><path class="cls-2" d="M110.28,175.55a46,46,0,0,0-32,12.92A46.21,46.21,0,0,0,0,221.77v51.44a7.38,7.38,0,0,0,7.38,7.38H21a7.39,7.39,0,0,0,7.38-7.38v-8.79h0V221.77a17.84,17.84,0,0,1,35.67,0v51.44a7.38,7.38,0,0,0,7.37,7.38H85.07a7.38,7.38,0,0,0,7.37-7.38V221.77h0a17.84,17.84,0,0,1,35.67,0v51.44a7.38,7.38,0,0,0,7.38,7.38h13.63a7.38,7.38,0,0,0,7.38-7.38V221.77A46.23,46.23,0,0,0,110.28,175.55Z" transform="translate(0)"/><path class="cls-3" d="M239.29,228.07a24.13,24.13,0,1,1-24.13-24.13,24.13,24.13,0,0,1,24.13,24.13V182.93a7.46,7.46,0,0,1,.14-1.43,52.52,52.52,0,1,0,0,93.14,7.54,7.54,0,0,1-.14-1.43Z" transform="translate(0)"/><path class="cls-2" d="M260.3,175.55H246.67a7.38,7.38,0,0,0-7.38,7.38v90.28a7.54,7.54,0,0,0,.14,1.43,7.39,7.39,0,0,0,7.24,5.95H260.3a7.38,7.38,0,0,0,7.38-7.38V182.93A7.37,7.37,0,0,0,260.3,175.55Z" transform="translate(0)"/><path class="cls-2" d="M412.33,211a24.12,24.12,0,0,1,28.75-4l28.13-13.12a52.51,52.51,0,0,0-92.33,34.23,51.77,51.77,0,0,0,.7,8.5l28.13-13.12A24,24,0,0,1,412.33,211Z" transform="translate(0)"/><polygon class="cls-6" points="377.58 236.57 377.57 236.57 377.58 236.57 377.58 236.57"/><path class="cls-6" d="M377.57,236.57a2.56,2.56,0,0,1,.05.27h0A2.56,2.56,0,0,0,377.57,236.57Z" transform="translate(0)"/><path class="cls-2" d="M429.4,280.59a52.22,52.22,0,0,0,31.48-10.49,6.51,6.51,0,0,0,.74-9.81l-11.06-11.06a6.52,6.52,0,0,0-8.13-.85,24.13,24.13,0,0,1-24.72.8l-28.13,13.11A52.37,52.37,0,0,0,429.4,280.59Z" transform="translate(0)"/><path class="cls-3" d="M472.68,198.34c-1.08-1.57-2.33-3-3.47-4.5L441.08,207l-22.37,10.43-13,6.06-28.13,13.12c0,.09,0,.18,0,.27l.09.5c.06.33.12.67.19,1s.2,1,.31,1.44c0,.21.09.41.14.62.12.48.24,1,.37,1.45,0,.15.08.3.13.45.27,1,.56,1.91.88,2.84l.12.34c.17.49.35,1,.54,1.46l.16.42c.61,1.54,1.28,3,2,4.49l.14.29c.79,1.53,1.66,3,2.59,4.45l0,.05a53.37,53.37,0,0,0,4.24,5.65l28.13-13.11,22.37-10.43,13-6.06,23.43-10.93a6.49,6.49,0,0,0,3.54-7.56A52.52,52.52,0,0,0,472.68,198.34Z" transform="translate(0)"/><path class="cls-5" d="M377.9,238.34c-.07-.33-.13-.67-.19-1C377.77,237.67,377.83,238,377.9,238.34Z" transform="translate(0)"/><path class="cls-5" d="M377.58,236.57h0a2.56,2.56,0,0,1,.05.27C377.61,236.75,377.59,236.66,377.58,236.57Z" transform="translate(0)"/><polygon class="cls-4" points="493.8 280.58 507.43 280.58 507.44 280.58 493.8 280.58 493.8 280.58"/><path class="cls-2" d="M511.83,177a7.38,7.38,0,0,0-4.4-1.46H493.8a7.38,7.38,0,0,0-7.38,7.38v30A38.11,38.11,0,0,1,511.83,177Z" transform="translate(0)"/><path class="cls-4" d="M486.42,212.93v1.42h0C486.44,213.88,486.42,213.41,486.42,212.93Z" transform="translate(0)"/><path class="cls-7" d="M507.44,280.59h.87a6.51,6.51,0,0,0,6.5-6.51v-.87A7.39,7.39,0,0,1,507.44,280.59Z" transform="translate(0)"/><path class="cls-7" d="M514.93,214.35a9.6,9.6,0,0,1-.12-1.42v1.42Z" transform="translate(0)"/><path class="cls-7" d="M486.42,273.21v.87a6.52,6.52,0,0,0,6.51,6.51h.87A7.39,7.39,0,0,1,486.42,273.21Z" transform="translate(0)"/><path class="cls-3" d="M545.28,181a38.09,38.09,0,0,0-58.86,31.93c0,.48,0,.95,0,1.42h0v58.86a7.39,7.39,0,0,0,7.38,7.38h13.64a7.39,7.39,0,0,0,7.37-7.38V212.93a9.7,9.7,0,0,1,12.89-9.16,7.29,7.29,0,0,0,7.58-1.61l11.05-11A6.55,6.55,0,0,0,545.28,181Z" transform="translate(0)"/><path class="cls-3" d="M339.89,278a6.51,6.51,0,0,0,5.2,2.59h19.13a6.5,6.5,0,0,0,5.2-10.39c-9.32-12.42-24.76-32.91-33.12-44l-18.54,22.52Z" transform="translate(0)"/><path class="cls-2" d="M364.2,175.55H344.3a6.48,6.48,0,0,0-5,2.37l-37.07,45v44.67l15.54-18.88,18.54-22.52,32.93-40A6.52,6.52,0,0,0,364.2,175.55Z" transform="translate(0)"/><path class="cls-3" d="M301.58,120.32a7.37,7.37,0,0,0-6.74-4.38H281.21a7.37,7.37,0,0,0-7.38,7.38V273.21a7.38,7.38,0,0,0,7.38,7.38h13.63a7.38,7.38,0,0,0,7.38-7.38V123.32A7.34,7.34,0,0,0,301.58,120.32Z" transform="translate(0)"/><path class="cls-3" d="M18.77,328.87H0v-36.2H17.73a12.32,12.32,0,0,1,8.33,2.9,9.1,9.1,0,0,1,3.31,7.19,9.33,9.33,0,0,1-3.26,7.18,9.91,9.91,0,0,1,3.46,3.62,9.69,9.69,0,0,1,1.24,4.81,9.51,9.51,0,0,1-3.46,7.5A12.65,12.65,0,0,1,18.77,328.87Zm-1.14-28.65H8.22v6.57h9.41a3.09,3.09,0,0,0,2.12-.78,3,3,0,0,0,1-2,1.32,1.32,0,0,0,.06-.52,3.3,3.3,0,0,0-.91-2.38A3.07,3.07,0,0,0,17.63,300.22Zm1,13.76H8.22v7.34H18.66a3.49,3.49,0,0,0,2.59-1.06,3.82,3.82,0,0,0,0-5.22A3.45,3.45,0,0,0,18.66,314Z" transform="translate(0)"/><path class="cls-3" d="M40,328.87H31.38l15.25-36.2h6.78l15.2,36.2H60.08l-2.48-6.11H42.45ZM54.6,315.42l-4.55-11.11L45.5,315.42Z" transform="translate(0)"/><path class="cls-3" d="M79.62,328.87H71.4v-36.2h8.22v14.12H95.28V292.67h8.17v36.2H95.28V314.34H79.62Z" transform="translate(0)"/><path class="cls-3" d="M116.53,328.87h-8.22v-36.2h8.22Z" transform="translate(0)"/><path class="cls-3" d="M127.86,328.87h-8.59l15.25-36.2h6.78l15.2,36.2H148l-2.48-6.11H130.34Zm14.63-13.45-4.55-11.11-4.55,11.11Z" transform="translate(0)"/></svg>