<svg id="Camada_1" data-name="Camada 1" xmlns="http://www.w3.org/2000/svg" viewBox="0 0 548.25 328.87"><defs><style>.cls-1{fill:#eb641c;}.cls-2{fill:#16a338;}.cls-3{fill:#fbbc3f;}.cls-4{fill:#e51f40;}.cls-5{fill:#283c8e;}.cls-6{fill:#e55196;}.cls-7{fill:#89367a;}.cls-8{fill:#12b0e5;}.cls-9{fill:#fff;}</style></defs><path class="cls-1" d="M249.7,59.61a52.52,52.52,0,1,0,52.52,52.52A52.52,52.52,0,0,0,249.7,59.61Zm0,76.65a24.13,24.13,0,1,1,24.13-24.13A24.13,24.13,0,0,1,249.7,136.26Z" transform="translate(0 0)"/><rect class="cls-2" x="197.19" width="28.39" height="164.65" rx="7.38" transform="translate(422.76 164.65) rotate(180)"/><rect class="cls-3" x="162.65" y="59.61" width="28.39" height="105.03" rx="7.38" transform="translate(353.68 224.26) rotate(180)"/><path class="cls-4" d="M144.81,164.65A46.23,46.23,0,0,0,191,118.42V66.12a6.52,6.52,0,0,0-6.51-6.51H169.15a6.51,6.51,0,0,0-6.5,6.51v52.3h0a17.84,17.84,0,1,1-35.67,0h0V66.12a6.51,6.51,0,0,0-6.51-6.51H105.1a6.52,6.52,0,0,0-6.51,6.51v52.3A46.23,46.23,0,0,0,144.81,164.65Z" transform="translate(0 0)"/><rect class="cls-5" width="28.39" height="164.65" rx="7.38"/><path class="cls-6" d="M46.22,59.61A46.22,46.22,0,0,0,0,105.83v52.31a6.51,6.51,0,0,0,6.51,6.51H21.88a6.52,6.52,0,0,0,6.51-6.51V105.83h0a17.84,17.84,0,0,1,35.67,0h0v52.31a6.51,6.51,0,0,0,6.5,6.51H85.94a6.51,6.51,0,0,0,6.5-6.51V105.83A46.22,46.22,0,0,0,46.22,59.61Z" transform="translate(0 0)"/><rect class="cls-2" y="175.55" width="28.39" height="105.03" rx="7.38"/><path class="cls-7" d="M85.07,280.59H71.43a7.38,7.38,0,0,1-7.37-7.38V221.77H92.44v51.44A7.38,7.38,0,0,1,85.07,280.59Z" transform="translate(0 0)"/><path class="cls-7" d="M149.12,280.59H135.49a7.38,7.38,0,0,1-7.38-7.38V221.77H156.5v51.44A7.38,7.38,0,0,1,149.12,280.59Z" transform="translate(0 0)"/><path class="cls-7" d="M46.22,175.55a46.22,46.22,0,0,0-17.83,88.87V221.77a17.84,17.84,0,0,1,35.67,0v42.65a46.23,46.23,0,0,0-17.84-88.87Z" transform="translate(0 0)"/><path class="cls-7" d="M110.28,175.55a46.23,46.23,0,0,0-17.84,88.87V221.77a17.84,17.84,0,0,1,35.67,0v42.65a46.22,46.22,0,0,0-17.83-88.87Z" transform="translate(0 0)"/><path class="cls-7" d="M21,280.59H7.38A7.38,7.38,0,0,1,0,273.21V221.77H28.39v51.44A7.39,7.39,0,0,1,21,280.59Z" transform="translate(0 0)"/><path class="cls-8" d="M215.16,175.55a52.52,52.52,0,1,0,52.52,52.52A52.51,52.51,0,0,0,215.16,175.55Zm0,76.65a24.13,24.13,0,1,1,24.13-24.13A24.13,24.13,0,0,1,215.16,252.2Z" transform="translate(0 0)"/><rect class="cls-3" x="239.29" y="175.55" width="28.39" height="105.03" rx="7.38"/><path class="cls-2" d="M429.4,175.55a52.51,52.51,0,0,0-52.52,52.52,51.77,51.77,0,0,0,.7,8.5l28.13-13.12A24.13,24.13,0,0,1,441.08,207l28.13-13.12A52.39,52.39,0,0,0,429.4,175.55Z" transform="translate(0 0)"/><path class="cls-2" d="M377.71,237.34c.06.33.12.67.19,1C377.83,238,377.77,237.67,377.71,237.34Z" transform="translate(0 0)"/><path class="cls-2" d="M377.62,236.84l.09.5Z" transform="translate(0 0)"/><path class="cls-2" d="M377.9,238.34c.09.48.2,1,.31,1.44C378.1,239.3,378,238.82,377.9,238.34Z" transform="translate(0 0)"/><path class="cls-2" d="M377.62,236.84c0-.09,0-.18,0-.27h0A2.56,2.56,0,0,1,377.62,236.84Z" transform="translate(0 0)"/><path class="cls-2" d="M429.4,252.2a24,24,0,0,1-11.69-3l-28.13,13.11a52.48,52.48,0,0,0,71.3,7.81,6.51,6.51,0,0,0,.74-9.81l-11.06-11.06a6.52,6.52,0,0,0-8.13-.85A24,24,0,0,1,429.4,252.2Z" transform="translate(0 0)"/><path class="cls-6" d="M476.51,221.76a6.49,6.49,0,0,0,3.54-7.56,52.52,52.52,0,0,0-7.37-15.86c-1.08-1.57-2.33-3-3.47-4.5L441.08,207l-22.37,10.43-13,6.06-28.14,13.12c.18,1.08.39,2.15.64,3.21,0,.21.09.41.14.62.12.48.24,1,.37,1.45,0,.15.08.3.13.45.27,1,.56,1.91.88,2.84l.12.34c.17.49.35,1,.54,1.46l.16.42c.61,1.54,1.28,3,2,4.49l.14.29c.79,1.53,1.66,3,2.59,4.45l0,.05a53.37,53.37,0,0,0,4.24,5.65l28.13-13.11,22.37-10.43,13-6.06Z" transform="translate(0 0)"/><rect class="cls-4" x="486.42" y="175.55" width="28.39" height="105.03" rx="7.38"/><path class="cls-5" d="M545.28,181a38.09,38.09,0,0,0-58.86,31.93c0,.48,0,.95,0,1.42h0v59.73a6.52,6.52,0,0,0,6.51,6.51h15.38a6.51,6.51,0,0,0,6.5-6.51V214.35h.12a9.69,9.69,0,0,1,12.77-10.58,7.29,7.29,0,0,0,7.58-1.61l11.05-11A6.55,6.55,0,0,0,545.28,181Z" transform="translate(0 0)"/><path class="cls-1" d="M345.09,280.59h19.13a6.5,6.5,0,0,0,5.2-10.39c-13.26-17.67-38.92-51.68-38.92-51.68a6.52,6.52,0,0,0-9.12-1.26l-12.26,9.28a6.49,6.49,0,0,0-1.26,9.11l32,42.35A6.51,6.51,0,0,0,345.09,280.59Z" transform="translate(0 0)"/><path class="cls-8" d="M344.3,175.55a6.48,6.48,0,0,0-5,2.37l-58.21,70.72a6.49,6.49,0,0,0,.89,9.15l16.85,13.88h.07l70.34-85.45a6.52,6.52,0,0,0-5-10.66Z" transform="translate(0 0)"/><rect class="cls-4" x="273.83" y="115.94" width="28.39" height="164.65" rx="7.38"/><path class="cls-9" d="M18.77,328.87H0v-36.2H17.73a12.32,12.32,0,0,1,8.33,2.9,9.1,9.1,0,0,1,3.31,7.19,9.33,9.33,0,0,1-3.26,7.18,9.91,9.91,0,0,1,3.46,3.62,9.69,9.69,0,0,1,1.24,4.81,9.51,9.51,0,0,1-3.46,7.5A12.65,12.65,0,0,1,18.77,328.87Zm-1.14-28.65H8.22v6.57h9.41a3.09,3.09,0,0,0,2.12-.78,3,3,0,0,0,1-2,1.32,1.32,0,0,0,.06-.52,3.3,3.3,0,0,0-.91-2.38A3.07,3.07,0,0,0,17.63,300.22Zm1,13.76H8.22v7.34H18.66a3.49,3.49,0,0,0,2.59-1.06,3.82,3.82,0,0,0,0-5.22A3.45,3.45,0,0,0,18.66,314Z" transform="translate(0 0)"/><path class="cls-9" d="M40,328.87H31.38l15.25-36.2h6.78l15.2,36.2H60.08l-2.48-6.11H42.45ZM54.6,315.42l-4.55-11.11L45.5,315.42Z" transform="translate(0 0)"/><path class="cls-9" d="M79.62,328.87H71.4v-36.2h8.22v14.12H95.28V292.67h8.17v36.2H95.28V314.34H79.62Z" transform="translate(0 0)"/><path class="cls-9" d="M116.53,328.87h-8.22v-36.2h8.22Z" transform="translate(0 0)"/><path class="cls-9" d="M127.86,328.87h-8.59l15.25-36.2h6.78l15.2,36.2H148l-2.48-6.11H130.34Zm14.63-13.45-4.55-11.11-4.55,11.11Z" transform="translate(0 0)"/></svg>