<svg id="Camada_1" data-name="Camada 1" xmlns="http://www.w3.org/2000/svg" viewBox="0 0 292.86 53.65"><defs><style>.cls-1{fill:#eb641c;}.cls-2{fill:#16a338;}.cls-3{fill:#fbbc3f;}.cls-4{fill:#e51f40;}.cls-5{fill:#283c8e;}.cls-6{fill:#e55196;}.cls-7{fill:#89367a;}.cls-8{fill:#12b0e5;}</style></defs><path class="cls-1" d="M81.37,19.43A17.11,17.11,0,1,0,98.49,36.54,17.11,17.11,0,0,0,81.37,19.43Zm0,25a7.86,7.86,0,1,1,7.87-7.86A7.86,7.86,0,0,1,81.37,44.4Z" transform="translate(0 0)"/><rect class="cls-2" x="64.26" width="9.25" height="53.65" rx="2.4" transform="translate(137.77 53.65) rotate(180)"/><rect class="cls-3" x="53" y="19.43" width="9.25" height="34.23" rx="2.4" transform="translate(115.26 73.08) rotate(180)"/><path class="cls-4" d="M47.19,53.65A15.06,15.06,0,0,0,62.25,38.59v-17a2.11,2.11,0,0,0-2.12-2.12h-5A2.12,2.12,0,0,0,53,21.55v17h0a5.81,5.81,0,1,1-11.62,0h0v-17a2.12,2.12,0,0,0-2.12-2.12h-5a2.12,2.12,0,0,0-2.12,2.12v17A15.06,15.06,0,0,0,47.19,53.65Z" transform="translate(0 0)"/><rect class="cls-5" width="9.25" height="53.65" rx="2.4"/><path class="cls-6" d="M15.06,19.43A15.06,15.06,0,0,0,0,34.49v17a2.11,2.11,0,0,0,2.12,2.12h5a2.11,2.11,0,0,0,2.12-2.12v-17h0a5.81,5.81,0,0,1,11.62,0h0v17A2.11,2.11,0,0,0,23,53.65h5a2.11,2.11,0,0,0,2.12-2.12v-17A15.07,15.07,0,0,0,15.06,19.43Z" transform="translate(0 0)"/><rect class="cls-2" x="114.2" y="19.43" width="9.25" height="34.23" rx="2.4"/><path class="cls-7" d="M141.92,53.65h-4.44a2.4,2.4,0,0,1-2.41-2.4V34.49h9.25V51.25A2.39,2.39,0,0,1,141.92,53.65Z" transform="translate(0 0)"/><path class="cls-7" d="M162.79,53.65h-4.44a2.39,2.39,0,0,1-2.4-2.4V34.49h9.25V51.25A2.4,2.4,0,0,1,162.79,53.65Z" transform="translate(0 0)"/><path class="cls-7" d="M129.26,19.43a15.06,15.06,0,0,0-5.81,29V34.49a5.81,5.81,0,0,1,11.62,0v13.9a15.06,15.06,0,0,0-5.81-29Z" transform="translate(0 0)"/><path class="cls-7" d="M150.14,19.43a15.06,15.06,0,0,0-5.82,29V34.49a5.82,5.82,0,0,1,11.63,0v13.9a15.06,15.06,0,0,0-5.81-29Z" transform="translate(0 0)"/><path class="cls-7" d="M121.05,53.65H116.6a2.4,2.4,0,0,1-2.4-2.4V34.49h9.25V51.25A2.4,2.4,0,0,1,121.05,53.65Z" transform="translate(0 0)"/><path class="cls-8" d="M184.32,19.43a17.11,17.11,0,1,0,17.11,17.11A17.12,17.12,0,0,0,184.32,19.43Zm0,25a7.86,7.86,0,1,1,7.86-7.86A7.86,7.86,0,0,1,184.32,44.4Z" transform="translate(0 0)"/><rect class="cls-3" x="192.18" y="19.43" width="9.25" height="34.23" rx="2.4"/><path class="cls-2" d="M254.13,19.43A17.11,17.11,0,0,0,237,36.54a18.06,18.06,0,0,0,.22,2.77L246.41,35a7.87,7.87,0,0,1,11.53-5.38l9.16-4.27A17,17,0,0,0,254.13,19.43Z" transform="translate(0 0)"/><path class="cls-2" d="M237.29,39.56l.06.33Z" transform="translate(0 0)"/><path class="cls-2" d="M237.26,39.4l0,.16Z" transform="translate(0 0)"/><path class="cls-2" d="M237.35,39.89c0,.15.06.31.1.47C237.41,40.2,237.38,40,237.35,39.89Z" transform="translate(0 0)"/><path class="cls-2" d="M237.26,39.4s0-.06,0-.09h0S237.25,39.37,237.26,39.4Z" transform="translate(0 0)"/><path class="cls-2" d="M254.13,44.4a7.8,7.8,0,0,1-3.81-1l-9.16,4.27a17.11,17.11,0,0,0,23.23,2.55,2.12,2.12,0,0,0,.24-3.2l-3.6-3.6a2.12,2.12,0,0,0-2.65-.28A7.84,7.84,0,0,1,254.13,44.4Z" transform="translate(0 0)"/><path class="cls-6" d="M269.48,34.48A2.11,2.11,0,0,0,270.64,32a17.18,17.18,0,0,0-2.41-5.17c-.35-.51-.75-1-1.13-1.46l-9.16,4.27-7.29,3.4-4.24,2-9.17,4.27q.09.52.21,1a1.94,1.94,0,0,0,.05.2,4.05,4.05,0,0,0,.12.47.83.83,0,0,0,0,.15c.09.31.18.62.29.93l0,.1.18.48a.78.78,0,0,1,.05.14c.2.5.42,1,.66,1.46l0,.09c.26.5.54,1,.84,1.46h0a16.74,16.74,0,0,0,1.39,1.84l9.16-4.27,7.29-3.4,4.24-2Z" transform="translate(0 0)"/><rect class="cls-4" x="272.71" y="19.43" width="9.25" height="34.23" rx="2.4"/><path class="cls-5" d="M291.9,21.2a12.43,12.43,0,0,0-19.19,10.41c0,.15,0,.31,0,.46h0V51.54a2.11,2.11,0,0,0,2.12,2.11h5A2.11,2.11,0,0,0,282,51.54V32.07h0a3.55,3.55,0,0,1,0-.46,3.17,3.17,0,0,1,4.19-3,2.4,2.4,0,0,0,2.48-.52l3.6-3.6A2.15,2.15,0,0,0,291.9,21.2Z" transform="translate(0 0)"/><path class="cls-1" d="M226.66,53.65h6.23a2.11,2.11,0,0,0,1.69-3.38c-4.32-5.76-12.68-16.84-12.68-16.84a2.12,2.12,0,0,0-3-.41l-4,3a2.12,2.12,0,0,0-.42,3L225,52.81A2.13,2.13,0,0,0,226.66,53.65Z" transform="translate(0 0)"/><path class="cls-8" d="M226.4,19.43a2.1,2.1,0,0,0-1.63.77l-19,23a2.12,2.12,0,0,0,.29,3l5.49,4.52h0L234.52,22.9a2.12,2.12,0,0,0-1.64-3.47Z" transform="translate(0 0)"/><rect class="cls-4" x="203.44" width="9.25" height="53.65" rx="2.4"/></svg>