<svg id="Camada_1" data-name="Camada 1" xmlns="http://www.w3.org/2000/svg" viewBox="0 0 606.37 1079.98"><defs><style>.cls-1{fill:#283c8e;}.cls-2{fill:#e55196;}</style></defs><rect class="cls-1" width="186.2" height="1079.98" rx="48.39"/><path class="cls-2" d="M540.2,391C372.75,391,237,526.76,237,694.21V1037.3A42.68,42.68,0,0,0,279.69,1080H380.55a42.68,42.68,0,0,0,42.67-42.68V694.21h0a117,117,0,1,1,234,0h0V1037.3A42.67,42.67,0,0,0,699.85,1080H800.71a42.67,42.67,0,0,0,42.67-42.68V694.21C843.38,526.76,707.64,391,540.2,391Z" transform="translate(-237.01)"/></svg>